<svg width="405" height="96" viewBox="0 0 405 96" fill="none" xmlns="http://www.w3.org/2000/svg">
<path d="M382.696 73.7975C377.908 73.7975 373.787 72.8278 370.333 70.8884C366.898 68.9288 364.252 66.1612 362.393 62.5855C360.535 58.9895 359.605 54.7371 359.605 49.828C359.605 45.0402 360.535 40.8382 362.393 37.2221C364.252 33.6059 366.868 30.7878 370.242 28.7676C373.636 26.7474 377.616 25.7373 382.181 25.7373C385.252 25.7373 388.11 26.2323 390.757 27.2221C393.424 28.1918 395.747 29.6565 397.727 31.616C399.727 33.5756 401.282 36.0402 402.393 39.0099C403.504 41.9594 404.06 45.4139 404.06 49.3735V52.9189H364.757V44.919H391.908C391.908 43.0604 391.504 41.4139 390.696 39.9796C389.888 38.5453 388.767 37.4241 387.333 36.616C385.919 35.7877 384.272 35.3736 382.393 35.3736C380.434 35.3736 378.696 35.8281 377.181 36.7372C375.686 37.6261 374.515 38.8281 373.666 40.3432C372.818 41.8382 372.383 43.5048 372.363 45.3432V52.9492C372.363 55.2522 372.787 57.2421 373.636 58.9188C374.504 60.5956 375.727 61.8885 377.302 62.7976C378.878 63.7067 380.747 64.1612 382.908 64.1612C384.343 64.1612 385.656 63.9592 386.848 63.5552C388.04 63.1511 389.06 62.5451 389.908 61.737C390.757 60.9289 391.403 59.939 391.848 58.7673L403.787 59.5552C403.181 62.4239 401.939 64.9289 400.06 67.0703C398.201 69.1915 395.797 70.848 392.848 72.0399C389.919 73.2116 386.535 73.7975 382.696 73.7975Z" fill="#242424"/>
<path d="M325.41 45.9793V72.8882H312.501V10.8281H325.046V34.5552H325.592C326.642 31.8077 328.339 29.6562 330.683 28.1007C333.026 26.525 335.966 25.7371 339.501 25.7371C342.733 25.7371 345.551 26.4442 347.955 27.8583C350.38 29.2522 352.258 31.2623 353.592 33.8885C354.945 36.4946 355.612 39.6158 355.592 43.2521V72.8882H342.683V45.5551C342.703 42.6864 341.976 40.4541 340.501 38.8582C339.046 37.2622 337.006 36.4643 334.38 36.4643C332.622 36.4643 331.067 36.838 329.713 37.5855C328.38 38.3329 327.329 39.4238 326.562 40.8582C325.814 42.2723 325.43 43.9794 325.41 45.9793Z" fill="#242424"/>
<path d="M262.768 90.3428V26.3434H275.495V34.1615H276.071C276.636 32.909 277.454 31.6362 278.525 30.3433C279.616 29.0302 281.03 27.9393 282.768 27.0706C284.525 26.1817 286.707 25.7373 289.313 25.7373C292.707 25.7373 295.838 26.6262 298.707 28.4039C301.576 30.1615 303.869 32.8181 305.586 36.3736C307.303 39.9089 308.161 44.3432 308.161 49.6765C308.161 54.8684 307.323 59.2522 305.646 62.8279C303.99 66.3834 301.727 69.0804 298.858 70.9187C296.01 72.7369 292.818 73.646 289.283 73.646C286.778 73.646 284.646 73.2318 282.889 72.4036C281.151 71.5753 279.727 70.5349 278.616 69.2824C277.505 68.0097 276.656 66.7268 276.071 65.4339H275.677V90.3428H262.768ZM275.404 49.6159C275.404 52.3835 275.788 54.7977 276.555 56.8582C277.323 58.9188 278.434 60.5249 279.889 61.6764C281.343 62.8077 283.111 63.3733 285.192 63.3733C287.293 63.3733 289.071 62.7976 290.525 61.6461C291.98 60.4744 293.081 58.8582 293.828 56.7976C294.596 54.7169 294.98 52.3229 294.98 49.6159C294.98 46.929 294.606 44.5654 293.858 42.525C293.111 40.4847 292.01 38.8887 290.555 37.7372C289.101 36.5857 287.313 36.0099 285.192 36.0099C283.091 36.0099 281.313 36.5655 279.858 37.6766C278.424 38.7877 277.323 40.3634 276.555 42.4038C275.788 44.4442 275.404 46.8482 275.404 49.6159Z" fill="#242424"/>
<path d="M230.807 73.7672C227.837 73.7672 225.191 73.252 222.868 72.2217C220.544 71.1713 218.706 69.6258 217.353 67.5854C216.019 65.5248 215.353 62.9592 215.353 59.8885C215.353 57.3027 215.827 55.131 216.777 53.3734C217.726 51.6159 219.019 50.2017 220.656 49.131C222.292 48.0603 224.15 47.2523 226.231 46.7068C228.332 46.1614 230.534 45.7775 232.837 45.5553C235.544 45.2725 237.726 45.0099 239.383 44.7674C241.039 44.5048 242.241 44.121 242.989 43.6159C243.736 43.1109 244.11 42.3634 244.11 41.3735V41.1917C244.11 39.2725 243.504 37.7877 242.292 36.7372C241.1 35.6867 239.403 35.1615 237.201 35.1615C234.878 35.1615 233.029 35.6766 231.656 36.7069C230.282 37.717 229.373 38.9897 228.928 40.5251L216.989 39.5554C217.595 36.7271 218.787 34.2827 220.565 32.2221C222.342 30.1413 224.635 28.5454 227.443 27.4343C230.272 26.303 233.544 25.7373 237.262 25.7373C239.847 25.7373 242.322 26.0403 244.686 26.6464C247.07 27.2524 249.181 28.1918 251.019 29.4645C252.878 30.7373 254.342 32.3736 255.413 34.3736C256.484 36.3534 257.019 38.7271 257.019 41.4947V72.8884H244.777V66.4339H244.413C243.666 67.8885 242.666 69.1713 241.413 70.2824C240.161 71.3733 238.656 72.2319 236.898 72.8581C235.14 73.4642 233.11 73.7672 230.807 73.7672ZM234.504 64.8582C236.403 64.8582 238.08 64.4844 239.534 63.737C240.989 62.9693 242.13 61.939 242.959 60.6461C243.787 59.3532 244.201 57.8885 244.201 56.2522V51.3128C243.797 51.5755 243.241 51.8179 242.534 52.0401C241.847 52.2421 241.07 52.434 240.201 52.6159C239.332 52.7775 238.464 52.929 237.595 53.0704C236.726 53.1916 235.938 53.3027 235.231 53.4037C233.716 53.626 232.393 53.9795 231.262 54.4643C230.13 54.9492 229.251 55.6057 228.625 56.434C227.999 57.2421 227.686 58.2522 227.686 59.4643C227.686 61.2218 228.322 62.5653 229.595 63.4946C230.888 64.4036 232.524 64.8582 234.504 64.8582Z" fill="#242424"/>
<path d="M172.809 72.8888V65.1919L195.596 36.98V36.6467H173.596V26.3438H211.142V34.7376L189.748 62.2525V62.5859H211.93V72.8888H172.809Z" fill="#242424"/>
<path d="M141.09 73.7672C138.121 73.7672 135.474 73.252 133.151 72.2217C130.828 71.1713 128.989 69.6258 127.636 67.5854C126.302 65.5248 125.636 62.9592 125.636 59.8885C125.636 57.3027 126.11 55.131 127.06 53.3734C128.009 51.6159 129.302 50.2017 130.939 49.131C132.575 48.0603 134.434 47.2523 136.515 46.7068C138.616 46.1614 140.818 45.7775 143.121 45.5553C145.828 45.2725 148.009 45.0099 149.666 44.7674C151.323 44.5048 152.525 44.121 153.272 43.6159C154.02 43.1109 154.393 42.3634 154.393 41.3735V41.1917C154.393 39.2725 153.787 37.7877 152.575 36.7372C151.383 35.6867 149.686 35.1615 147.484 35.1615C145.161 35.1615 143.312 35.6766 141.939 36.7069C140.565 37.717 139.656 38.9897 139.211 40.5251L127.272 39.5554C127.878 36.7271 129.07 34.2827 130.848 32.2221C132.626 30.1413 134.919 28.5454 137.727 27.4343C140.555 26.303 143.828 25.7373 147.545 25.7373C150.131 25.7373 152.605 26.0403 154.969 26.6464C157.353 27.2524 159.464 28.1918 161.302 29.4645C163.161 30.7373 164.626 32.3736 165.696 34.3736C166.767 36.3534 167.302 38.7271 167.302 41.4947V72.8884H155.06V66.4339H154.696C153.949 67.8885 152.949 69.1713 151.696 70.2824C150.444 71.3733 148.939 72.2319 147.181 72.8581C145.424 73.4642 143.393 73.7672 141.09 73.7672ZM144.787 64.8582C146.686 64.8582 148.363 64.4844 149.818 63.737C151.272 62.9693 152.413 61.939 153.242 60.6461C154.07 59.3532 154.484 57.8885 154.484 56.2522V51.3128C154.08 51.5755 153.525 51.8179 152.818 52.0401C152.131 52.2421 151.353 52.434 150.484 52.6159C149.615 52.7775 148.747 52.929 147.878 53.0704C147.009 53.1916 146.222 53.3027 145.514 53.4037C143.999 53.626 142.676 53.9795 141.545 54.4643C140.413 54.9492 139.535 55.6057 138.908 56.434C138.282 57.2421 137.969 58.2522 137.969 59.4643C137.969 61.2218 138.605 62.5653 139.878 63.4946C141.171 64.4036 142.807 64.8582 144.787 64.8582Z" fill="#242424"/>
<path d="M50.1123 6.95294C55.5147 -0.497363 69.3006 -4.96834 73.0264 9.56134L79.1738 30.4256H111.029L110.907 30.5516H111.03L60.918 89.0467C55.5155 96.497 41.7297 100.968 38.0039 86.4383L31.8564 65.574H0.000976562L0.123047 65.4481H0L50.1123 6.95294ZM29.5703 51.9754H33.3467C42.4382 51.9754 43.3997 56.9646 43.4072 57.0047L50.4854 79.1736L81.46 44.0242H77.6836C68.6048 44.0242 67.6343 39.0488 67.624 38.9949L60.5449 16.826L29.5703 51.9754Z" fill="url(#paint0_linear_2106_44)"/>
<defs>
<linearGradient id="paint0_linear_2106_44" x1="55.5151" y1="0" x2="55.5151" y2="95.9996" gradientUnits="userSpaceOnUse">
<stop stop-color="#FE27A8"/>
<stop offset="1" stop-color="#FF7C21"/>
</linearGradient>
</defs>
</svg>